<svg xmlns="http://www.w3.org/2000/svg" xmlns:xlink="http://www.w3.org/1999/xlink" width="6912" zoomAndPan="magnify" viewBox="0 0 5184 2592.000001" height="3456" preserveAspectRatio="xMidYMid meet" version="1.0"><defs><g/><clipPath id="c8be1d3367"><path d="M 207.621094 567.480469 L 2018 567.480469 L 2018 1966.441406 L 207.621094 1966.441406 Z M 207.621094 567.480469 " clip-rule="nonzero"/></clipPath></defs><g clip-path="url(#c8be1d3367)"><path fill="#ffffff" d="M 1218.039062 567.480469 L 1065.320312 1330.222656 L 1064.90625 1330.222656 C 1061.984375 1344.410156 1059.898438 1358.597656 1058.230469 1373.203125 C 1056.976562 1385.300781 1056.140625 1398.238281 1056.140625 1410.753906 C 1056.140625 1452.480469 1064.90625 1482.105469 1082.429688 1498.796875 C 1101.207031 1516.320312 1133.753906 1525.5 1180.902344 1525.5 C 1208.441406 1525.5 1231.808594 1521.746094 1251.417969 1514.234375 C 1269.359375 1507.140625 1285.214844 1496.710938 1298.570312 1482.523438 C 1313.171875 1467.085938 1326.941406 1444.96875 1339.042969 1416.597656 C 1352.8125 1384.050781 1364.496094 1345.246094 1373.675781 1300.183594 L 1373.257812 1300.183594 L 1520.964844 567.480469 L 2017.917969 567.480469 L 1861.863281 1351.085938 L 1861.449219 1351.503906 C 1820.554688 1553.039062 1740.027344 1705.753906 1618.605469 1809.234375 C 1496.347656 1913.550781 1336.539062 1966.125 1139.59375 1966.125 C 1082.429688 1966.125 1028.1875 1961.117188 977.699219 1951.519531 C 925.957031 1941.503906 877.972656 1926.066406 834.160156 1906.039062 C 789.515625 1885.175781 749.457031 1859.722656 714.828125 1829.679688 C 679.359375 1799.222656 649.316406 1763.753906 625.117188 1723.699219 C 600.914062 1684.476562 582.972656 1641.496094 570.457031 1594.765625 C 558.355469 1548.867188 552.515625 1500.464844 552.515625 1449.976562 C 552.515625 1429.113281 553.765625 1405.746094 556.6875 1379.878906 C 559.191406 1357.761719 562.945312 1333.144531 568.371094 1306.023438 L 615.101562 1074.027344 L 207.859375 919.644531 L 802.867188 919.644531 L 719 1336.066406 C 714.828125 1356.09375 711.90625 1376.121094 709.820312 1396.152344 C 707.734375 1414.511719 706.898438 1432.453125 706.898438 1449.976562 C 706.898438 1488.78125 711.070312 1524.25 719.417969 1555.960938 C 727.761719 1587.253906 739.863281 1616.460938 756.550781 1643.167969 C 772.824219 1669.453125 792.4375 1692.820312 815.800781 1712.847656 C 839.585938 1733.292969 867.125 1751.238281 899.253906 1765.839844 C 931.800781 1780.863281 968.101562 1792.128906 1007.324219 1800.054688 C 1047.796875 1807.984375 1092.027344 1811.738281 1140.429688 1811.738281 C 1299.820312 1811.738281 1426.25 1772.097656 1519.296875 1692.402344 C 1613.597656 1611.871094 1677.4375 1488.363281 1711.234375 1321.878906 L 1710.816406 1321.878906 L 1829.734375 721.863281 L 1647.394531 721.863281 L 1525.554688 1330.222656 L 1525.140625 1330.640625 C 1513.457031 1387.390625 1498.851562 1436.625 1481.328125 1477.515625 C 1462.132812 1522.578125 1438.347656 1559.714844 1410.8125 1588.921875 C 1381.601562 1619.382812 1347.386719 1642.75 1307.75 1657.769531 C 1269.359375 1672.375 1227.636719 1679.886719 1181.738281 1679.886719 C 1094.113281 1679.886719 1025.683594 1656.9375 977.28125 1610.621094 C 927.628906 1563.472656 902.59375 1497.128906 902.59375 1411.171875 C 902.59375 1394.898438 903.84375 1376.957031 905.929688 1357.347656 C 907.597656 1340.238281 910.9375 1321.046875 915.109375 1300.597656 L 914.691406 1300.597656 L 1029.855469 721.863281 L 406.472656 721.863281 Z M 1218.039062 567.480469 " fill-opacity="1" fill-rule="nonzero"/></g><path fill="#c6c6c6" d="M 614.683594 1073.195312 L 595.074219 1170.414062 L 760.308594 1128.691406 Z M 614.683594 1073.195312 " fill-opacity="1" fill-rule="evenodd"/><g fill="#ffffff" fill-opacity="1"><g transform="translate(2032.966019, 1915.893178)"><g><path d="M 666.53125 11.078125 C 591.445312 11.078125 536.363281 -8.921875 501.28125 -48.921875 C 466.207031 -88.929688 448.671875 -138.476562 448.671875 -197.5625 C 448.671875 -223.40625 451.742188 -252.632812 457.890625 -285.25 C 464.046875 -317.875 470.507812 -349.570312 477.28125 -380.34375 C 484.050781 -411.125 488.664062 -430.820312 491.125 -439.4375 C 500.976562 -482.519531 510.210938 -524.984375 518.828125 -566.828125 C 527.441406 -608.679688 531.75 -642.53125 531.75 -668.375 C 531.75 -731.15625 509.59375 -762.546875 465.28125 -762.546875 C 433.28125 -762.546875 404.96875 -746.847656 380.34375 -715.453125 C 355.726562 -684.066406 336.035156 -643.144531 321.265625 -592.6875 L 195.71875 0 L -70.15625 0 L 125.546875 -923.1875 L 391.421875 -923.1875 L 371.125 -827.171875 C 432.664062 -896.097656 504.671875 -930.5625 587.140625 -930.5625 C 649.921875 -930.5625 699.773438 -913.328125 736.703125 -878.859375 C 773.628906 -844.398438 792.09375 -792.085938 792.09375 -721.921875 C 792.09375 -686.222656 787.78125 -646.523438 779.15625 -602.828125 C 770.539062 -559.140625 758.234375 -505.90625 742.234375 -443.125 C 732.390625 -404.96875 723.46875 -367.734375 715.46875 -331.421875 C 707.46875 -295.109375 703.46875 -266.488281 703.46875 -245.5625 C 703.46875 -220.945312 709.003906 -201.867188 720.078125 -188.328125 C 731.160156 -174.785156 750.238281 -168.015625 777.3125 -168.015625 C 814.238281 -168.015625 843.78125 -181.242188 865.9375 -207.703125 C 888.09375 -234.171875 910.25 -275.101562 932.40625 -330.5 L 1009.953125 -330.5 C 964.410156 -195.101562 911.789062 -104.320312 852.09375 -58.15625 C 792.394531 -12 730.539062 11.078125 666.53125 11.078125 Z M 666.53125 11.078125 "/></g></g></g><g fill="#ffffff" fill-opacity="1"><g transform="translate(2965.37866, 1915.893178)"><g><path d="M 666.53125 11.078125 C 591.445312 11.078125 536.363281 -8.921875 501.28125 -48.921875 C 466.207031 -88.929688 448.671875 -138.476562 448.671875 -197.5625 C 448.671875 -223.40625 451.742188 -252.632812 457.890625 -285.25 C 464.046875 -317.875 470.507812 -349.570312 477.28125 -380.34375 C 484.050781 -411.125 488.664062 -430.820312 491.125 -439.4375 C 500.976562 -482.519531 510.210938 -524.984375 518.828125 -566.828125 C 527.441406 -608.679688 531.75 -642.53125 531.75 -668.375 C 531.75 -731.15625 509.59375 -762.546875 465.28125 -762.546875 C 433.28125 -762.546875 404.96875 -746.847656 380.34375 -715.453125 C 355.726562 -684.066406 336.035156 -643.144531 321.265625 -592.6875 L 195.71875 0 L -70.15625 0 L 125.546875 -923.1875 L 391.421875 -923.1875 L 371.125 -827.171875 C 432.664062 -896.097656 504.671875 -930.5625 587.140625 -930.5625 C 649.921875 -930.5625 699.773438 -913.328125 736.703125 -878.859375 C 773.628906 -844.398438 792.09375 -792.085938 792.09375 -721.921875 C 792.09375 -686.222656 787.78125 -646.523438 779.15625 -602.828125 C 770.539062 -559.140625 758.234375 -505.90625 742.234375 -443.125 C 732.390625 -404.96875 723.46875 -367.734375 715.46875 -331.421875 C 707.46875 -295.109375 703.46875 -266.488281 703.46875 -245.5625 C 703.46875 -220.945312 709.003906 -201.867188 720.078125 -188.328125 C 731.160156 -174.785156 750.238281 -168.015625 777.3125 -168.015625 C 814.238281 -168.015625 843.78125 -181.242188 865.9375 -207.703125 C 888.09375 -234.171875 910.25 -275.101562 932.40625 -330.5 L 1009.953125 -330.5 C 964.410156 -195.101562 911.789062 -104.320312 852.09375 -58.15625 C 792.394531 -12 730.539062 11.078125 666.53125 11.078125 Z M 666.53125 11.078125 "/></g></g></g><g fill="#ffffff" fill-opacity="1"><g transform="translate(3897.7913, 1915.893178)"><g><path d="M 269.5625 7.390625 C 178.476562 7.390625 106.472656 -15.992188 53.546875 -62.765625 C 0.617188 -109.546875 -25.84375 -183.40625 -25.84375 -284.34375 C -25.84375 -368.039062 -8.613281 -460.972656 25.84375 -563.140625 C 60.3125 -665.304688 115.703125 -753.625 192.015625 -828.09375 C 268.335938 -902.5625 364.347656 -939.796875 480.046875 -939.796875 C 637.609375 -939.796875 716.390625 -841.320312 716.390625 -644.375 L 716.390625 -642.53125 C 720.078125 -641.300781 726.847656 -640.6875 736.703125 -640.6875 C 777.316406 -640.6875 824.085938 -651.457031 877.015625 -673 C 929.953125 -694.539062 977.957031 -720.695312 1021.03125 -751.46875 L 1037.65625 -701.609375 C 1001.957031 -663.453125 955.488281 -631.140625 898.25 -604.671875 C 841.007812 -578.210938 778.539062 -559.445312 710.84375 -548.375 C 701 -436.351562 675.765625 -338.492188 635.140625 -254.796875 C 594.523438 -171.097656 542.210938 -106.472656 478.203125 -60.921875 C 414.203125 -15.378906 344.65625 7.390625 269.5625 7.390625 Z M 343.421875 -158.78125 C 372.960938 -158.78125 402.503906 -175.707031 432.046875 -209.5625 C 461.585938 -243.414062 487.4375 -289.570312 509.59375 -348.03125 C 531.75 -406.5 547.75 -471.429688 557.59375 -542.828125 C 524.363281 -550.210938 507.75 -576.0625 507.75 -620.375 C 507.75 -670.84375 526.828125 -704.078125 564.984375 -720.078125 C 562.523438 -760.703125 556.367188 -788.707031 546.515625 -804.09375 C 536.671875 -819.476562 519.441406 -827.171875 494.828125 -827.171875 C 454.203125 -827.171875 414.8125 -797.628906 376.65625 -738.546875 C 338.5 -679.460938 307.726562 -608.679688 284.34375 -526.203125 C 260.957031 -443.734375 249.265625 -371.113281 249.265625 -308.34375 C 249.265625 -249.257812 256.03125 -209.5625 269.5625 -189.25 C 283.101562 -168.9375 307.722656 -158.78125 343.421875 -158.78125 Z M 343.421875 -158.78125 "/></g></g></g></svg>